<?xml version="1.0" encoding="UTF-8"?>
<svg version="1.1" viewBox="0 0 2048 1894" width="1280" height="1280" xmlns="http://www.w3.org/2000/svg">
<path transform="translate(1137,39)" d="m0 0h2l6 15 4 13 10 25 8 16 12 20 9 12 13 15 11 12 8 7 10 9 12 9 18 12 6 3 19 10 15 7 25 9 21 6 23 6 30 8 30 9 36 12 35 14 24 11 16 8 24 14 16 10 17 12 13 11 10 9 20 20 9 11 13 18 11 19 8 16 10 24 8 27 5 28 2 7v37l-2 5-5 29-9 25-8 16-9 17-7 10-12 16-11 13-8 8-7 8-20 18-14 11-17 12-16 10-13 8-23 13-22 12-16 8-20 9-25 11-27 10-27 9-33 9-39 7-16 1h-33l-13-1-29-7-16-7-10-6-3-2 2-4 10-9 11-9 7-7 8-7 16-15 10-9 10-7 6 1 26 7 33 7 30 4 23 2h40l31-3 24-5 27-9 22-10 15-10 9-7 10-9 8-8 11-14 12-19 9-19 6-16 6-23 7-44v-49l-7-32-8-21-8-16-7-12-9-12-12-14-20-20-17-13-14-10-21-13-17-9-23-11-23-9-33-11-9-2h-6l-7 16-5 12-7 16-12 25-12 21-14 23-17 25-20 26-12 14-9 10-11 12-17 17-8 7-3 3h-2v2l-11 9-13 11-8 7-13 12-9 9-7 8-4 5h-2l-2 4-12 15-14 19-10 15-12 19-14 26-8 16-9 19-9 24-7 22-4 18-4 20-2 21v22l1 24 2 12 5 21 8 21 10 21 9 14 9 12 9 10 7 8 8 7 11 10 12 9 15 10 11 7 23 12 30 13 34 12 28 8 28 7 34 7 10 2-2 4-11 11-7 8-11 12-11 13-9 10-9 9h-7l-35-11-43-15-28-11-30-13-16-8-17-9-22-12-10-6-19-12-20-14-14-11-15-13-20-20-11-14-10-14-15-27-7-20-5-21-2-11v-19l1-13 7-30 8-22 7-16 11-19 12-19 9-12 10-13 10-12 10-13 13-15 11-14 11-12 11-14 7-8 7-9 9-10 9-11 10-11 7-9 9-10 9-11 9-10 9-11 11-12 8-10 12-14 11-13 14-17 10-13 8-10 11-15 14-21 9-16 11-21 5-15 3-10 4-27v-24l-2-11-1-4-1-13-5-15-3-12-4-5-23-10-10-6-12-8-14-12-9-9-9-11-12-16-11-18-12-23-6-14-10-26-8-29-7-29-5-25-4-21z" fill="#CDAE01"/>
<path transform="translate(982,1367)" d="m0 0h53l63 5 34 4 40 6 57 11 38 9 48 13 35 11 42 14 21 8 33 13 32 14 30 14 24 12-1 4-6 7-10 16-10 14-13 20-10 15-15 23-9 13-3 3-4-2-13-8-21-11-32-13-15-6-40-13-36-10-28-7-48-10-55-9-49-6-44-4-55-3h-95l-36 2-47 5-47 7-48 9-31 7-32 8-35 10-51 16-20 7-35 14-18 8-2 1h-8l-11-17-8-13-11-17-14-23-10-15-9-14-5-6v-3l10-6 12-5 15-7 31-13 31-12 30-11 36-12 37-11 39-11 32-8 32-7 45-9 36-6 42-6 35-4z" fill="#CDAE01"/>
<path transform="translate(1036,284)" d="m0 0 1 2-10 17-5 9-10 15-8 10-12 14-7 8-22 22-11 9-10 9-19 14-18 12-22 13-19 10-27 13-30 13-28 11-44 16-29 11-20 8-19 8-11 5-14 6-19 10-18 10-11 8-10 7-14 11-19 19-11 14-11 17-8 16-6 16-6 18-8 44v38l8 42 9 26 11 26 13 23 8 14 18 24 11 13 9 10 12 13 18 18 8 7 10 9 14 11 12 10 17 12 16 11 5 3 5-1 1-25 3-19 8-26 9-21 14-26 12-18 10-14 7-9 11-14 10-11 7-8 12-12 7-8 20-20 8-7 15-14 31-31 7-8 12-14 7-9 11-15 16-24 15-25 14-27 12-29 7-21 5-17 5-25 2-7 3-39 5-6 9-7 16-12 13-10 19-14 11-9 7-4 3 1-1 16-4 31-8 35-12 36-9 22-12 26-13 23-8 14-10 16-12 17-10 14-10 13-8 10-11 13-9 11-7 7-9 11-13 13-8 7-18 18-7 8-12 14-14 17-8 11-13 19-8 13-8 14-10 19-4 10-4 9-10 30-4 16-3 20-1 9v42l2 8 2 13 5 15 3 7-1 5-13 11-8 7-14 13-11 9-10 9-9 4-17-1-25-5-24-7-35-14-14-6-19-10-16-9-19-12-14-10-12-9-11-9-12-11-28-28-13-17-10-13-11-18-11-20-11-26-8-24-7-32-3-34v-18l3-35 5-28 8-32 7-20 8-19 8-16 8-15 14-21 12-16 9-11 12-13 21-21 8-7 10-8 14-11 18-13 19-12 19-11 18-10 23-11 25-11 28-11 28-10 39-12 42-11 48-11 26-8 23-10 23-12 16-11 10-8 11-10 8-7 10-10 7-8 9-11 10-14 9-13z" fill="#CDAE01"/>
<path transform="translate(974,1581)" d="m0 0h44l44 2 48 4 32 4 39 6 37 7 30 7 34 9 34 11 2 2-1 11-10 59-9 54-3 12-2 2h-615l-5-3-5-18-8-33-11-43-5-21-2-5v-5l21-8 31-10 47-13 40-9 49-9 36-5 37-4 24-2z" fill="#CDAE01"/>
<path transform="translate(866,997)" d="m0 0 12 2 34 1 19 1 8 7 7 8 9 17 3 11v16l-3 13-8 18-6 11-12 17-16 17-25 25-9 11-8 11-9 14-9 19-1 4v20l5 10 9 8 9 5 12 2 6 4 5 1h18l11-3 8-3 12-2 16-8 11-8 6-8 4-8 1-5v-21l-3-12-7-16-7-11-12-17-6-7 1-4 12-13 9-20 5-16 3-3 4 2 15 29 7 16 5 14 6 18 2 16 1 3v28l-4 15-6 11-8 10-8 7-13 8-20 8-35 5-9 2-21-1-38-7-12-5-7-3-10-7-7-6-9-13-4-10-3-16 1-13 4-21 5-14 7-16 8-16 14-21 9-12 9-10 7-10 7-12 3-8 2-3 1-6v-24l-4-8-5-6-7-6-2-5z" fill="#CDAE01"/>
</svg>
